{
	"asset":{
		"generator":"Khronos glTF Blender I/O v4.2.60",
		"version":"2.0"
	},
	"scene":0,
	"scenes":[
		{
			"name":"Scene",
			"nodes":[
				5
			]
		}
	],
	"nodes":[
		{
			"mesh":0,
			"name":"Object_4"
		},
		{
			"mesh":1,
			"name":"Object_5"
		},
		{
			"children":[
				0,
				1
			],
			"name":"Cloud GN.001_2"
		},
		{
			"children":[
				2
			],
			"name":"GLTF_SceneRootNode",
			"rotation":[
				0.70710688829422,
				0,
				0,
				0.7071066498756409
			]
		},
		{
			"children":[
				3
			],
			"name":"root"
		},
		{
			"children":[
				4
			],
			"name":"Sketchfab_model",
			"rotation":[
				-0.70710688829422,
				0,
				0,
				0.7071066498756409
			],
			"scale":[
				0.11086469143629074,
				0.11086470633745193,
				0.11086470633745193
			],
			"translation":[
				-0.29072603583335876,
				0.14612776041030884,
				0.03682434558868408
			]
		}
	],
	"materials":[
		{
			"alphaMode":"BLEND",
			"doubleSided":true,
			"name":"Cloud",
			"normalTexture":{
				"index":0,
				"scale":0.9980982542037964,
				"texCoord":1
			},
			"pbrMetallicRoughness":{
				"baseColorFactor":[
					0.5470492839813232,
					0.5470492839813232,
					0.5470492839813232,
					0.43123939633369446
				],
				"baseColorTexture":{
					"index":1
				},
				"metallicFactor":0,
				"roughnessFactor":0
			}
		}
	],
	"meshes":[
		{
			"name":"Object_0",
			"primitives":[
				{
					"attributes":{
						"POSITION":0,
						"NORMAL":1,
						"TEXCOORD_0":2,
						"TEXCOORD_1":3
					},
					"indices":4,
					"material":0
				}
			]
		},
		{
			"name":"Object_1",
			"primitives":[
				{
					"attributes":{
						"POSITION":5,
						"NORMAL":6,
						"TEXCOORD_0":7,
						"TEXCOORD_1":8
					},
					"indices":9,
					"material":0
				}
			]
		}
	],
	"textures":[
		{
			"sampler":0,
			"source":0
		},
		{
			"sampler":0,
			"source":1
		}
	],
	"images":[
		{
			"mimeType":"image/png",
			"name":"Cloud_normal",
			"uri":"Cloud_normal.png"
		},
		{
			"mimeType":"image/png",
			"name":"Cloud_baseColor",
			"uri":"Cloud_baseColor.png"
		}
	],
	"accessors":[
		{
			"bufferView":0,
			"componentType":5126,
			"count":65532,
			"max":[
				9.073281288146973,
				5.082722187042236,
				3.926675796508789
			],
			"min":[
				-2.076493263244629,
				-1.2560176849365234,
				-3.6494319438934326
			],
			"type":"VEC3"
		},
		{
			"bufferView":1,
			"componentType":5126,
			"count":65532,
			"type":"VEC3"
		},
		{
			"bufferView":2,
			"componentType":5126,
			"count":65532,
			"type":"VEC2"
		},
		{
			"bufferView":3,
			"componentType":5126,
			"count":65532,
			"type":"VEC2"
		},
		{
			"bufferView":4,
			"componentType":5123,
			"count":163827,
			"type":"SCALAR"
		},
		{
			"bufferView":5,
			"componentType":5126,
			"count":3423,
			"max":[
				8.584940910339355,
				5.133012294769287,
				3.9149036407470703
			],
			"min":[
				0.49267610907554626,
				-1.2617155313491821,
				-2.7107419967651367
			],
			"type":"VEC3"
		},
		{
			"bufferView":6,
			"componentType":5126,
			"count":3423,
			"type":"VEC3"
		},
		{
			"bufferView":7,
			"componentType":5126,
			"count":3423,
			"type":"VEC2"
		},
		{
			"bufferView":8,
			"componentType":5126,
			"count":3423,
			"type":"VEC2"
		},
		{
			"bufferView":9,
			"componentType":5123,
			"count":8553,
			"type":"SCALAR"
		}
	],
	"bufferViews":[
		{
			"buffer":0,
			"byteLength":786384,
			"byteOffset":0,
			"target":34962
		},
		{
			"buffer":0,
			"byteLength":786384,
			"byteOffset":786384,
			"target":34962
		},
		{
			"buffer":0,
			"byteLength":524256,
			"byteOffset":1572768,
			"target":34962
		},
		{
			"buffer":0,
			"byteLength":524256,
			"byteOffset":2097024,
			"target":34962
		},
		{
			"buffer":0,
			"byteLength":327654,
			"byteOffset":2621280,
			"target":34963
		},
		{
			"buffer":0,
			"byteLength":41076,
			"byteOffset":2948936,
			"target":34962
		},
		{
			"buffer":0,
			"byteLength":41076,
			"byteOffset":2990012,
			"target":34962
		},
		{
			"buffer":0,
			"byteLength":27384,
			"byteOffset":3031088,
			"target":34962
		},
		{
			"buffer":0,
			"byteLength":27384,
			"byteOffset":3058472,
			"target":34962
		},
		{
			"buffer":0,
			"byteLength":17106,
			"byteOffset":3085856,
			"target":34963
		}
	],
	"samplers":[
		{
			"magFilter":9729,
			"minFilter":9987
		}
	],
	"buffers":[
		{
			"byteLength":3102964,
			"uri":"cloud.bin"
		}
	]
}
